<svg height="1902" width="720" xmlns="http://www.w3.org/2000/svg">
<rect height="1902" fill="#555" width="720"></rect>
<text fill="#7f7" font-family="Courier New" font-size="12" xml:space="preserve">
<tspan x="10" y="26">26 megabytes installed</tspan>
<tspan x="10" y="42"></tspan>
<tspan x="10" y="58">node_modules</tspan>
<tspan x="10" y="74">└─┬ grunt-jsbeautifier@0.2.13 </tspan>
<tspan x="10" y="90">  ├── async@2.3.0 </tspan>
<tspan x="10" y="106">  ├─┬ grunt@1.0.1 </tspan>
<tspan x="10" y="122">  │ ├── coffee-script@1.10.0 </tspan>
<tspan x="10" y="138">  │ ├─┬ dateformat@1.0.12 </tspan>
<tspan x="10" y="154">  │ │ ├── get-stdin@4.0.1 </tspan>
<tspan x="10" y="170">  │ │ └─┬ meow@3.7.0 </tspan>
<tspan x="10" y="186">  │ │   ├─┬ camelcase-keys@2.1.0 </tspan>
<tspan x="10" y="202">  │ │   │ └── camelcase@2.1.1 </tspan>
<tspan x="10" y="218">  │ │   ├── decamelize@1.2.0 </tspan>
<tspan x="10" y="234">  │ │   ├─┬ loud-rejection@1.6.0 </tspan>
<tspan x="10" y="250">  │ │   │ ├─┬ currently-unhandled@0.4.1 </tspan>
<tspan x="10" y="266">  │ │   │ │ └── array-find-index@1.0.2 </tspan>
<tspan x="10" y="282">  │ │   │ └── signal-exit@3.0.2 </tspan>
<tspan x="10" y="298">  │ │   ├── map-obj@1.0.1 </tspan>
<tspan x="10" y="314">  │ │   ├─┬ normalize-package-data@2.3.6 </tspan>
<tspan x="10" y="330">  │ │   │ ├── hosted-git-info@2.4.2 </tspan>
<tspan x="10" y="346">  │ │   │ ├─┬ is-builtin-module@1.0.0 </tspan>
<tspan x="10" y="362">  │ │   │ │ └── builtin-modules@1.1.1 </tspan>
<tspan x="10" y="378">  │ │   │ └─┬ validate-npm-package-license@3.0.1 </tspan>
<tspan x="10" y="394">  │ │   │   ├─┬ spdx-correct@1.0.2 </tspan>
<tspan x="10" y="410">  │ │   │   │ └── spdx-license-ids@1.2.2 </tspan>
<tspan x="10" y="426">  │ │   │   └── spdx-expression-parse@1.0.4 </tspan>
<tspan x="10" y="442">  │ │   ├── object-assign@4.1.1 </tspan>
<tspan x="10" y="458">  │ │   ├─┬ read-pkg-up@1.0.1 </tspan>
<tspan x="10" y="474">  │ │   │ ├─┬ find-up@1.1.2 </tspan>
<tspan x="10" y="490">  │ │   │ │ ├── path-exists@2.1.0 </tspan>
<tspan x="10" y="506">  │ │   │ │ └─┬ pinkie-promise@2.0.1 </tspan>
<tspan x="10" y="522">  │ │   │ │   └── pinkie@2.0.4 </tspan>
<tspan x="10" y="538">  │ │   │ └─┬ read-pkg@1.1.0 </tspan>
<tspan x="10" y="554">  │ │   │   ├─┬ load-json-file@1.1.0 </tspan>
<tspan x="10" y="570">  │ │   │   │ ├── graceful-fs@4.1.11 </tspan>
<tspan x="10" y="586">  │ │   │   │ ├─┬ parse-json@2.2.0 </tspan>
<tspan x="10" y="602">  │ │   │   │ │ └─┬ error-ex@1.3.1 </tspan>
<tspan x="10" y="618">  │ │   │   │ │   └── is-arrayish@0.2.1 </tspan>
<tspan x="10" y="634">  │ │   │   │ ├── pify@2.3.0 </tspan>
<tspan x="10" y="650">  │ │   │   │ └─┬ strip-bom@2.0.0 </tspan>
<tspan x="10" y="666">  │ │   │   │   └── is-utf8@0.2.1 </tspan>
<tspan x="10" y="682">  │ │   │   └── path-type@1.1.0 </tspan>
<tspan x="10" y="698">  │ │   ├─┬ redent@1.0.0 </tspan>
<tspan x="10" y="714">  │ │   │ ├─┬ indent-string@2.1.0 </tspan>
<tspan x="10" y="730">  │ │   │ │ └─┬ repeating@2.0.1 </tspan>
<tspan x="10" y="746">  │ │   │ │   └─┬ is-finite@1.0.2 </tspan>
<tspan x="10" y="762">  │ │   │ │     └── number-is-nan@1.0.1 </tspan>
<tspan x="10" y="778">  │ │   │ └── strip-indent@1.0.1 </tspan>
<tspan x="10" y="794">  │ │   └── trim-newlines@1.0.0 </tspan>
<tspan x="10" y="810">  │ ├── eventemitter2@0.4.14 </tspan>
<tspan x="10" y="826">  │ ├── exit@0.1.2 </tspan>
<tspan x="10" y="842">  │ ├─┬ findup-sync@0.3.0 </tspan>
<tspan x="10" y="858">  │ │ └── glob@5.0.15 </tspan>
<tspan x="10" y="874">  │ ├─┬ glob@7.0.6 </tspan>
<tspan x="10" y="890">  │ │ ├── fs.realpath@1.0.0 </tspan>
<tspan x="10" y="906">  │ │ ├─┬ inflight@1.0.6 </tspan>
<tspan x="10" y="922">  │ │ │ └── wrappy@1.0.2 </tspan>
<tspan x="10" y="938">  │ │ ├── inherits@2.0.3 </tspan>
<tspan x="10" y="954">  │ │ └── once@1.4.0 </tspan>
<tspan x="10" y="970">  │ ├─┬ grunt-cli@1.2.0 </tspan>
<tspan x="10" y="986">  │ │ └── resolve@1.1.7 </tspan>
<tspan x="10" y="1002">  │ ├── grunt-known-options@1.1.0 </tspan>
<tspan x="10" y="1018">  │ ├─┬ grunt-legacy-log@1.0.0 </tspan>
<tspan x="10" y="1034">  │ │ ├── colors@1.1.2 </tspan>
<tspan x="10" y="1050">  │ │ ├─┬ grunt-legacy-log-utils@1.0.0 </tspan>
<tspan x="10" y="1066">  │ │ │ ├─┬ chalk@1.1.3 </tspan>
<tspan x="10" y="1082">  │ │ │ │ ├── ansi-styles@2.2.1 </tspan>
<tspan x="10" y="1098">  │ │ │ │ ├── escape-string-regexp@1.0.5 </tspan>
<tspan x="10" y="1114">  │ │ │ │ ├─┬ has-ansi@2.0.0 </tspan>
<tspan x="10" y="1130">  │ │ │ │ │ └── ansi-regex@2.1.1 </tspan>
<tspan x="10" y="1146">  │ │ │ │ ├── strip-ansi@3.0.1 </tspan>
<tspan x="10" y="1162">  │ │ │ │ └── supports-color@2.0.0 </tspan>
<tspan x="10" y="1178">  │ │ │ └── lodash@4.3.0 </tspan>
<tspan x="10" y="1194">  │ │ ├── hooker@0.2.3 </tspan>
<tspan x="10" y="1210">  │ │ ├── lodash@3.10.1 </tspan>
<tspan x="10" y="1226">  │ │ └── underscore.string@3.2.3 </tspan>
<tspan x="10" y="1242">  │ ├─┬ grunt-legacy-util@1.0.0 </tspan>
<tspan x="10" y="1258">  │ │ ├── async@1.5.2 </tspan>
<tspan x="10" y="1274">  │ │ ├── getobject@0.1.0 </tspan>
<tspan x="10" y="1290">  │ │ ├── lodash@4.3.0 </tspan>
<tspan x="10" y="1306">  │ │ ├── underscore.string@3.2.3 </tspan>
<tspan x="10" y="1322">  │ │ └─┬ which@1.2.14 </tspan>
<tspan x="10" y="1338">  │ │   └── isexe@2.0.0 </tspan>
<tspan x="10" y="1354">  │ ├── iconv-lite@0.4.15 </tspan>
<tspan x="10" y="1370">  │ ├─┬ js-yaml@3.5.5 </tspan>
<tspan x="10" y="1386">  │ │ ├── argparse@1.0.9 </tspan>
<tspan x="10" y="1402">  │ │ └── esprima@2.7.3 </tspan>
<tspan x="10" y="1418">  │ ├─┬ minimatch@3.0.3 </tspan>
<tspan x="10" y="1434">  │ │ └─┬ brace-expansion@1.1.7 </tspan>
<tspan x="10" y="1450">  │ │   ├── balanced-match@0.4.2 </tspan>
<tspan x="10" y="1466">  │ │   └── concat-map@0.0.1 </tspan>
<tspan x="10" y="1482">  │ ├─┬ nopt@3.0.6 </tspan>
<tspan x="10" y="1498">  │ │ └── abbrev@1.1.0 </tspan>
<tspan x="10" y="1514">  │ ├── path-is-absolute@1.0.1 </tspan>
<tspan x="10" y="1530">  │ └── rimraf@2.2.8 </tspan>
<tspan x="10" y="1546">  ├─┬ js-beautify@1.6.12 </tspan>
<tspan x="10" y="1562">  │ ├─┬ config-chain@1.1.11 </tspan>
<tspan x="10" y="1578">  │ │ └── proto-list@1.2.4 </tspan>
<tspan x="10" y="1594">  │ ├─┬ editorconfig@0.13.2 </tspan>
<tspan x="10" y="1610">  │ │ ├── bluebird@3.5.0 </tspan>
<tspan x="10" y="1626">  │ │ ├─┬ commander@2.9.0 </tspan>
<tspan x="10" y="1642">  │ │ │ └── graceful-readlink@1.0.1 </tspan>
<tspan x="10" y="1658">  │ │ ├─┬ lru-cache@3.2.0 </tspan>
<tspan x="10" y="1674">  │ │ │ └── pseudomap@1.0.2 </tspan>
<tspan x="10" y="1690">  │ │ └── sigmund@1.0.1 </tspan>
<tspan x="10" y="1706">  │ └─┬ mkdirp@0.5.1 </tspan>
<tspan x="10" y="1722">  │   └── minimist@0.0.8 </tspan>
<tspan x="10" y="1738">  ├── lodash@4.17.4 </tspan>
<tspan x="10" y="1754">  ├─┬ rc@1.2.1 </tspan>
<tspan x="10" y="1770">  │ ├── deep-extend@0.4.1 </tspan>
<tspan x="10" y="1786">  │ ├── ini@1.3.4 </tspan>
<tspan x="10" y="1802">  │ ├── minimist@1.2.0 </tspan>
<tspan x="10" y="1818">  │ └── strip-json-comments@2.0.1 </tspan>
<tspan x="10" y="1834">  ├── semver@5.3.0 </tspan>
<tspan x="10" y="1850">  └─┬ underscore.string@3.3.4 </tspan>
<tspan x="10" y="1866">    ├── sprintf-js@1.0.3 </tspan>
<tspan x="10" y="1882">    └── util-deprecate@1.0.2</tspan>
</text>
</svg>
